<svg height="1200" width="1200" xmlns="http://www.w3.org/2000/svg"><g fill="#52484c"><path d="m1134.3 579.95c-36.88-95.43-113.02-247.29-157.68-346.77-9.55-21.27-10.44-101.69-37.13-113.29s-80.05 26.28-163.59 27.45c-22.32 26.78-55.61 75.51-69.78 96.57-2.44-6.29-8.2-10.72-14.91-10.72h-5.8v-63.8c0-3.84-3.12-6.96-6.96-6.96 0 0-387.43-52.65-412.5-56.04-25.05-3.41-22.7 15.9-20.81 19.25l56.34 107.57h-2.4c-8.93 0-16.16 7.78-16.16 17.39l-16.32 97.46c0 9.61 7.79 17.39 17.4 17.39h-3.59c-3.16 0-6.11-.85-8.67-2.32-126.78 79.3-211.77 223.63-211.77 381.69 0 209.99 193.22 349.21 431.58 349.21s431.58-139.22 431.58-349.21c0-157.41-84.31-301.18-210.21-380.69 6.33-2.61 10.78-8.82 10.78-16.08l-2.23-13.32c30.74-20.04 84.36-55.4 99.72-68.36 21.93-18.5 65-28.41 89.33 24.35 13.96 30.28 85.03 216.35 164.16 306.11 14.7 16.68 32.46 25.05 48.64 25.73 8.64.36 25.5-5.07 10.99-42.61zm-411.88-144.9c92.58 74.98 148.5 189.82 148.5 309.77 0 84.45-36.78 157.82-106.36 212.22-69.94 54.67-166.89 84.78-273.02 84.78-106.12 0-203.07-30.11-273.02-84.78-69.57-54.38-106.36-127.78-106.36-212.22 0-117.3 53.47-229.7 142.4-304.73 9.37-7.91 23.51-22.44 59.47-22.44h356.17c29.02 0 44.73 11.33 52.21 17.4z"/><path d="m699.84 468.32c-30.38-14.53-35.91-6.79-12.28 17.21 0 0 36.94 37.51 50.04 96.45 13.1 58.95-4.49 108.56-4.49 108.56-11.25 31.76-2.96 36.44 18.41 10.39 0 0 48.71-59.31 33.13-129.42-15.57-70.08-84.81-103.2-84.81-103.2z"/><path d="m699.84 468.32c-30.38-14.53-35.91-6.79-12.28 17.21 0 0 36.94 37.51 50.04 96.45 13.1 58.95-4.49 108.56-4.49 108.56-11.25 31.76-2.96 36.44 18.41 10.39 0 0 48.71-59.31 33.13-129.42-15.57-70.08-84.81-103.2-84.81-103.2z"/></g></svg>