<svg width="1600" height="1600" viewBox="0 0 1200 1200" xmlns="http://www.w3.org/2000/svg"><path d="M1134.3 579.95c-36.875-95.426-113.02-247.29-157.68-346.77-9.55-21.266-10.441-101.69-37.129-113.29s-80.051 26.281-163.59 27.445c-22.32 26.785-55.609 75.516-69.781 96.574-2.438-6.29-8.195-10.715-14.914-10.715h-5.793v-63.805c0-3.84-3.121-6.96-6.96-6.96 0 0-387.43-52.646-412.5-56.04-25.056-3.406-22.704 15.898-20.81 19.246l56.34 107.57h-2.398c-8.93 0-16.164 7.79-16.164 17.398l-16.32 97.453c0 9.613 7.789 17.398 17.398 17.398h-3.59a17.25 17.25 0 0 1-8.664-2.328c-126.78 79.305-211.77 223.63-211.77 381.69 0 209.99 193.22 349.21 431.58 349.21s431.58-139.22 431.58-349.21c0-157.41-84.312-301.18-210.21-380.69 6.324-2.605 10.777-8.82 10.777-16.078l-2.23-13.32c30.741-20.039 84.358-55.402 99.718-68.363 21.926-18.492 65.004-28.402 89.328 24.359 13.957 30.277 85.031 216.35 164.16 306.11 14.7 16.68 32.461 25.043 48.637 25.727 8.64.36 25.5-5.066 10.992-42.613zm-411.88-144.9c92.578 74.977 148.5 189.82 148.5 309.77 0 84.445-36.781 157.82-106.36 212.22-69.938 54.672-166.89 84.781-273.02 84.781-106.12 0-203.07-30.109-273.02-84.781-69.574-54.383-106.36-127.78-106.36-212.22 0-117.3 53.473-229.7 142.4-304.73 9.371-7.906 23.508-22.441 59.473-22.441h356.17c29.016 0 44.723 11.328 52.211 17.398z"/><path d="M703.57 458.36c-3.96-3.203-13.223-10.703-33.336-10.703h-356.16c-22.297 0-30.191 6.816-37.824 13.402l-2.293 1.969c-82.5 69.602-131.75 174.95-131.75 281.8 0 74.879 32.785 140.09 94.824 188.58 64.691 50.566 155.09 78.422 254.54 78.422 99.457 0 189.85-27.852 254.54-78.422 62.027-48.504 94.824-113.71 94.824-188.58.016-109.7-51.344-216.79-137.38-286.46zm18.52 266.61c-21.371 26.027-29.664 21.348-18.406-10.391 0 0 17.578-49.621 4.488-108.56-13.094-58.945-50.039-96.457-50.039-96.457-23.64-24-18.109-31.754 12.277-17.207 0 0 69.238 33.109 84.816 103.21 15.57 70.09-33.137 129.41-33.137 129.41z"/></svg>