<svg xmlns="http://www.w3.org/2000/svg" viewBox="0 0 20.01 19.658"><path d="M0 13.066c0 .47.313.791.781.791h1.006V17.1c0 .468.313.771.781.771h3.233v1.006c0 .469.322.781.79.781.47 0 .782-.312.782-.781v-1.006h1.67v1.006c0 .469.312.781.781.781.469 0 .791-.312.791-.781v-1.006h1.66v1.006c0 .469.313.781.782.781.478 0 .79-.312.79-.781v-1.006h3.233c.469 0 .781-.303.781-.771v-3.252h1.006c.469 0 .781-.323.781-.791 0-.47-.312-.782-.78-.782H17.86v-1.67h1.006c.469 0 .781-.312.781-.78 0-.47-.312-.792-.78-.792H17.86v-1.66h1.006c.469 0 .781-.322.781-.791 0-.469-.312-.781-.78-.781H17.86V2.578c0-.469-.312-.781-.78-.781h-3.233V.8c0-.469-.313-.791-.791-.791-.47 0-.782.322-.782.79v.997h-1.66V.8c0-.469-.322-.791-.79-.791-.47 0-.782.322-.782.79v.997h-1.67V.8c0-.469-.312-.791-.781-.791C6.123.01 5.8.332 5.8.8v.997H2.568c-.468 0-.78.312-.78.781v3.233H.78c-.469 0-.781.312-.781.78 0 .47.313.792.781.792h1.006v1.66H.781c-.469 0-.781.322-.781.791 0 .469.313.781.781.781h1.006v1.67H.781c-.469 0-.781.313-.781.781zm3.36 2.95V3.662c0-.215.078-.293.283-.293h12.363c.205 0 .283.078.283.293v12.354c0 .215-.078.283-.283.283H3.643c-.205 0-.284-.069-.284-.283zM6.2 14.209h7.266c.498 0 .732-.234.732-.752V6.211c0-.508-.234-.742-.732-.742H6.2c-.498 0-.742.234-.742.742v7.246c0 .518.244.752.742.752zm.537-1.514V6.982c0-.146.098-.234.235-.234h5.712c.147 0 .235.088.235.234v5.713c0 .137-.088.235-.235.235H6.973a.226.226 0 0 1-.235-.235z" fill="#fff" fill-opacity=".85"/></svg>