<svg xmlns="http://www.w3.org/2000/svg" viewBox="0 0 21.289 17.002"><path d="M3.066 15.088h14.795c2.051 0 3.067-1.016 3.067-3.027v-7.1c0-2.012-1.016-3.027-3.067-3.027H3.066C1.026 1.934 0 2.939 0 4.96v7.1c0 2.021 1.025 3.027 3.066 3.027zm.02-1.572c-.977 0-1.514-.518-1.514-1.534V5.04c0-1.016.537-1.533 1.514-1.533h14.756c.957 0 1.514.517 1.514 1.533v6.943c0 1.016-.557 1.534-1.514 1.534zm.283-10.938h1.572V.801c0-.469-.322-.781-.79-.781-.47 0-.782.312-.782.78zm3.154 0h1.573V.801c0-.469-.323-.781-.791-.781-.47 0-.782.312-.782.78zm3.155 0h1.572V.801c0-.469-.322-.781-.791-.781-.469 0-.781.312-.781.78zm3.154 0h1.572V.801c0-.469-.312-.781-.781-.781-.469 0-.791.312-.791.78zm3.154 0h1.573V.801c0-.469-.313-.781-.782-.781-.468 0-.79.312-.79.78zM3.37 14.463v1.748c0 .469.313.791.781.791.47 0 .791-.322.791-.791v-1.748zm3.154 0v1.748c0 .469.313.791.782.791.468 0 .79-.322.79-.791v-1.748zm3.155 0v1.748c0 .469.312.791.781.791.469 0 .791-.322.791-.791v-1.748zm3.154 0v1.748c0 .469.322.791.791.791.469 0 .781-.322.781-.791v-1.748zm3.154 0v1.748c0 .469.323.791.791.791.47 0 .782-.322.782-.791v-1.748z" fill="#fff" fill-opacity=".85"/></svg>