<svg fill="none" height="84" width="84" xmlns="http://www.w3.org/2000/svg"><linearGradient id="a" gradientUnits="userSpaceOnUse" x1=".854" x2="83.146" y1=".854" y2="83.146"><stop offset="0" stop-color="#ff6363"/><stop offset="1" stop-color="#d72a2a"/></linearGradient><path clip-rule="evenodd" d="M21.394 54v8.606L.76 41.972l4.323-4.291L21.393 54zm8.605 8.606h-8.605L42.028 83.24l4.305-4.3L30 62.606zm48.941-16.31l4.3-4.305L42.01.76l-4.301 4.305 16.292 16.31h-9.848L32.78 10.012l-4.305 4.3 7.081 7.082h-4.928V53.39h31.997v-4.947l7.081 7.08 4.305-4.3-11.386-11.386V29.99zM23.546 19.223l-4.3 4.305 4.615 4.614 4.3-4.305zm36.617 36.616l-4.286 4.3 4.614 4.615 4.3-4.305zM14.317 28.456l-4.305 4.305 11.382 11.382v-8.61zm34.15 34.15h-8.61l11.382 11.382 4.305-4.305z" fill="url(#a)" fill-rule="evenodd"/></svg>