<svg xmlns="http://www.w3.org/2000/svg" width="255" height="255.125"><path d="M127.5 255c69.75 0 127.5-57.875 127.5-127.5C255 57.75 197.125 0 127.375 0 57.75 0 0 57.75 0 127.5 0 197.125 57.875 255 127.5 255z" fill="#0a84ff"/><path d="M134.5 188.875c-6.5 0-10.25-4.375-10.25-11.625V88.625h-.875l-16.625 11c-3 2-4.375 2.25-6.375 2.25-4.125 0-7.375-3.75-7.375-7.75 0-3.25 1.25-5.125 4-7.25l23.25-15.75c5.5-3.75 8.875-5 13.75-5 6.875 0 10.875 4.125 10.875 11.625v99.5c0 7.25-3.75 11.625-10.375 11.625z" fill="#fff"/></svg>