<svg xmlns="http://www.w3.org/2000/svg" width="255" height="255.125"><path d="M127.5 255c69.75 0 127.5-57.875 127.5-127.5C255 57.75 197.125 0 127.375 0 57.75 0 0 57.75 0 127.5 0 197.125 57.875 255 127.5 255z" fill="#0a84ff"/><path d="M98.25 186c-5.75 0-9.25-3.25-9.25-8.5 0-2.625 1.25-5.25 3.375-7.75l41.25-44.125c7.625-8 15.5-15.875 15.5-25.25 0-10.625-8.125-17.75-20.375-17.75-12.375 0-19.25 8.25-22.625 16-2.25 3.625-4.625 6.5-9.125 6.5-5.125 0-8.5-3.25-8.5-8.25 0-1.75.125-3.25.75-5.25 4.25-14.375 20.375-25.5 38.625-25.5 23.875 0 39.625 13.125 39.625 32.625 0 14.375-8 24.625-19.375 36.75l-30.5 32.625V169H164.5c5.125 0 8.75 3.125 8.75 8.5 0 5.25-3.625 8.5-8.75 8.5z" fill="#fff"/></svg>