<svg xmlns="http://www.w3.org/2000/svg" width="255" height="255.125"><path d="M127.5 255c69.75 0 127.5-57.875 127.5-127.5C255 57.75 197.125 0 127.375 0 57.75 0 0 57.75 0 127.5 0 197.125 57.875 255 127.5 255z" fill="#0a84ff"/><path d="M127.875 188.875c-21.125 0-37.875-10.125-41.75-25-.375-1.875-.625-3-.625-4.875 0-5.25 3.75-8.875 9-8.875 4.5 0 7.125 2.125 8.875 6.625 3.125 8.875 10.875 15.625 24.875 15.625 15 0 25.125-7.5 25.125-19.125s-10-19.625-24.5-19.625h-8.75c-4.75 0-8.125-3.375-8.125-7.875 0-4.875 3.375-8.125 8.125-8.125h8.125c12.25 0 21.25-7.75 21.25-18.375 0-10.375-8-16.75-20.875-16.75-12 0-20 6-22.875 15.625-1.5 4.5-4.25 6.75-8.875 6.75-5.125 0-8.75-3.5-8.75-8.625 0-1.875.125-3.25.5-5.125 3.5-15.25 19.375-25 40.375-25 23.125 0 39.625 12.875 39.625 30.875 0 13.5-10 25.375-23 27.25v1c15.625 1.5 27.125 13.625 27.125 28.75 0 20.375-17.125 34.875-44.875 34.875z" fill="#fff"/></svg>