<svg xmlns="http://www.w3.org/2000/svg" width="255" height="255.125"><path d="M127.5 255c69.75 0 127.5-57.875 127.5-127.5C255 57.75 197.125 0 127.375 0 57.75 0 0 57.75 0 127.5 0 197.125 57.875 255 127.5 255z" fill="#0a84ff"/><path d="M144.375 186.25c-6 0-9.5-4.125-9.5-10.875V162.25h-46.25c-8.25 0-13.375-5-13.375-12.625 0-3.875.875-7 3.5-11.375 10.625-17.375 26.5-40.875 39.875-61.125 5.125-7.75 10.875-11 19.875-11 9.25 0 15.5 5.5 15.5 13.625v65.5h9.875c5.125 0 8.5 3.5 8.5 8.625 0 5-3.5 8.375-8.5 8.375H154v13.125c0 6.875-3.5 10.875-9.625 10.875zm-9.5-41V82.875H134c-13.5 20.375-29.875 44.75-39.75 61.625v.75z" fill="#fff"/></svg>