<svg xmlns="http://www.w3.org/2000/svg" width="255" height="255.125"><path d="M127.5 255c69.75 0 127.5-57.875 127.5-127.5C255 57.75 197.125 0 127.375 0 57.75 0 0 57.75 0 127.5 0 197.125 57.875 255 127.5 255z" fill="#0a84ff"/><path d="M126.75 188.875c-20.625 0-35.625-8.25-40.75-21.375-.875-2-1.375-4-1.375-6.25 0-5 3.5-8.625 8.75-8.625 3.75 0 6.875 2.125 9.125 6.25 4.25 8.5 13.25 13.75 23.875 13.75 14.25 0 24.875-10.5 24.875-24.625 0-14.25-9.125-23.75-22.75-23.75-6.5 0-11.375 2-17.5 7.25-5.25 3.875-8.125 4.875-12.875 4.875-7.125 0-11.5-4.875-11-12.375l3.625-42.75c.5-7.5 6-12.25 14.5-12.25h53.375c4.5 0 7.625 3.25 7.625 8 0 4.625-3.25 8-7.625 8h-51.5l-3 34.875H105c4.625-6.375 15.375-11 25.875-11 23.625 0 40 15.875 40 38.625 0 25-18 41.375-44.125 41.375z" fill="#fff"/></svg>