<svg xmlns="http://www.w3.org/2000/svg" width="255" height="255.125"><path d="M127.5 255c69.75 0 127.5-57.875 127.5-127.5C255 57.75 197.125 0 127.375 0 57.75 0 0 57.75 0 127.5 0 197.125 57.875 255 127.5 255z" fill="#0a84ff"/><path d="M128.5 188.875c-15.125 0-29.25-5.5-37.5-19.25-5.5-8.625-8.625-21.5-8.625-39.25 0-43 18.875-64.25 49.375-64.25 16.625 0 30.75 8.375 34.75 17.875.75 1.875 1.125 3.625 1.125 5.75 0 4.5-3.375 7.625-7.75 7.625s-7-2.25-11.125-6.375c-3.625-4.5-8.75-8.375-17.625-8.375-17.75 0-29.75 16.875-29.75 43.25v1.375h1c4.125-9.375 14.25-18.125 31.5-18.125 20.375 0 38.875 13.75 38.875 38.25 0 26.375-18.25 41.5-44.25 41.5zm-.875-15.5c15.125 0 24.875-10 24.875-25.125 0-14.375-10.125-24.375-24.75-24.375-14.5 0-24.75 10.125-24.75 24.25 0 14.625 10.375 25.25 24.625 25.25z" fill="#fff"/></svg>