<svg xmlns="http://www.w3.org/2000/svg" width="255" height="255.125"><path d="M127.5 255c69.75 0 127.5-57.875 127.5-127.5C255 57.75 197.125 0 127.375 0 57.75 0 0 57.75 0 127.5 0 197.125 57.875 255 127.5 255z" fill="#0a84ff"/><path d="M110.125 188.75c-5.625 0-10.25-3.875-10.25-9.375 0-2.625.625-4.375 1.75-6.625L149 86v-1H94.25c-4.375 0-7.625-3.375-7.625-8 0-4.75 3.125-8 7.625-8h63.125c8.375 0 14.125 5.375 14.125 12.5 0 2.75-.625 5.375-3.125 10.125l-48.125 90c-2.5 5-5.625 7.125-10.125 7.125z" fill="#fff"/></svg>