<svg xmlns="http://www.w3.org/2000/svg" width="255" height="255.125"><path d="M127.5 255.125c69.75 0 127.5-57.75 127.5-127.5C255 58 197.125.125 127.375.125 57.75.125 0 58 0 127.625c0 69.75 57.875 127.5 127.5 127.5z" fill="#32d74b"/><path d="M70 133.5c0-31.625 26-56.375 55-56.375 1.125 0 2.5.125 3.5.25l-9-9.25c-1.375-1.5-2.375-3.75-2.375-6 0-4.625 3.5-8.25 8.25-8.25 2.25 0 4.5 1 5.875 2.625L156 81.625c3 3.25 3.25 8.875 0 12l-25 25c-1.375 1.375-3.5 2.5-5.625 2.5-4.625 0-8.25-3.625-8.25-8.25 0-2.25 1-4.375 2.5-5.875l12.5-12.375c-1.25-.25-3-.375-4.625-.375-22 0-39.625 17.75-39.625 39.75 0 22.125 17.625 39.875 39.625 39.875s39.625-17.75 39.625-39.875c0-4.875 4.125-8.875 9-8.875 4.75 0 8.875 4 8.875 8.875 0 31.75-25.625 57.625-57.5 57.625S70 165.75 70 133.5z" fill="#fff"/></svg>