<svg xmlns="http://www.w3.org/2000/svg" width="294.75" height="230.125"><path d="M39.25 230.125H255.5c26.25 0 39.25-12.875 39.25-38.625V38.75C294.75 13 281.75 0 255.5 0H39.25C13.125 0 0 13 0 38.75V191.5c0 25.75 13.125 38.625 39.25 38.625zM39.5 210c-12.5 0-19.375-6.625-19.375-19.625v-150.5c0-13 6.875-19.75 19.375-19.75h215.75c12.375 0 19.375 6.75 19.375 19.75v150.5c0 13-7 19.625-19.375 19.625z" fill="#fff" fill-opacity=".85"/><path d="M78.875 172.125h137c8.75 0 12.375-3.625 12.375-12.625V70.75c0-9-3.625-12.75-12.375-12.75h-137C70.25 58 66.5 61.75 66.5 70.75v88.75c0 9 3.75 12.625 12.375 12.625z" fill="#fff" fill-opacity=".85"/></svg>