<svg width="295" height="296" fill="none" xmlns="http://www.w3.org/2000/svg"><g clip-path="url(#clip0_68_5527)" fill="#FF9F0A"><path d="M39.75 296.725H256c26.25 0 39.25-12.928 39.25-38.786l.25-217.302c0-25.857-13-38.912-39.25-38.912H40C13.875 1.725.75 14.78.75 40.637L.5 257.939c0 25.858 13.125 38.786 39.25 38.786zm.25-20.209c-12.5 0-19.375-6.652-19.375-19.706l.25-215.043c0-13.055 6.875-19.833 19.375-19.833H256c12.375 0 19.375 6.778 19.375 19.833l-.25 215.043c0 13.054-7 19.706-19.375 19.706H40z"/><path d="M159.125 206.938h88.5c7.875 0 11-3.25 11-11.25v-93.25c0-8-3.125-11.25-11-11.25h-88.5c-7.875 0-11 3.25-11 11.25v93.25c0 8 3.125 11.25 11 11.25zm-115.5-58c.125 4.5 3.75 8.5 8.125 8.5h35l18.5-.75-10.375 9.874-13.5 13.376c-1.625 1.5-2.375 3.75-2.375 5.874 0 4.5 3.125 7.75 7.375 7.75 2.5 0 4.375-1 6-3l33.25-35.5c2.125-2.25 2.75-3.874 2.75-6.124 0-2.126-.625-3.876-2.75-6.126l-33.25-35.5c-1.625-1.874-3.5-2.874-6-2.874-4.25 0-7.375 3.25-7.375 7.75 0 2.124.75 4.374 2.375 5.874l13.5 13.25 10.375 9.876-18.5-.626h-35c-4.375 0-8.25 3.876-8.125 8.376z"/></g><defs><clipPath id="clip0_68_5527"><path fill="#fff" transform="translate(0 .938)" d="M0 0H295V295H0z"/></clipPath></defs></svg>