<svg xmlns="http://www.w3.org/2000/svg" width="294.75" height="233.125"><path d="M39.25 233.125H255.5c26.25 0 39.25-13 39.25-38.75V41.75C294.75 16 281.75 3 255.5 3H39.25C13.125 3 0 15.875 0 41.75v152.625c0 25.875 13.125 38.75 39.25 38.75zM39.5 213c-12.5 0-19.375-6.75-19.375-19.625V42.75c0-13 6.875-19.625 19.375-19.625h215.75c12.375 0 19.375 6.625 19.375 19.625v150.625c0 12.875-7 19.625-19.375 19.625z" fill="#fff" fill-opacity=".85"/><path d="M48.125 116.5h88.25c7.875 0 11-3.25 11-11.25V50c0-8-3.125-11.25-11-11.25h-88.25C40.375 38.75 37.25 42 37.25 50v55.25c0 8 3.125 11.25 10.875 11.25z" fill="#fff" fill-opacity=".85"/></svg>