<svg xmlns="http://www.w3.org/2000/svg" width="294.75" height="230.125"><path d="M39.25 230.125H255.5c26.25 0 39.25-12.875 39.25-38.625V38.75C294.75 13 281.75 0 255.5 0H39.25C13.125 0 0 13 0 38.75V191.5c0 25.75 13.125 38.625 39.25 38.625zM39.5 210c-12.5 0-19.375-6.625-19.375-19.625v-150.5c0-13 6.875-19.75 19.375-19.75h215.75c12.375 0 19.375 6.75 19.375 19.75v150.5c0 13-7 19.625-19.375 19.625z" fill="#fff" fill-opacity=".85"/><path d="M48.125 193h198.5c7 0 11-4.125 11-11.25v-55.625c0-7.125-4-11.25-11-11.25h-198.5c-7 0-10.875 4.125-10.875 11.25v55.625c0 7.125 3.875 11.25 10.875 11.25z" fill="#fff" fill-opacity=".85"/></svg>